<svg xmlns="http://www.w3.org/2000/svg" viewBox="0 0 128 128">
  <path fill="#a1a1a1" fill-rule="evenodd" stroke="#000" stroke-linecap="round" stroke-linejoin="round" stroke-width="1.2407" d="m118.1254 76.2694.2458 16.7099 2.0738 1.6952-.2067-18.405z"/>
  <path fill="#cfcfcf" fill-rule="evenodd" stroke="#000" stroke-linecap="round" stroke-linejoin="round" stroke-width="1.2427" d="m120.236 76.2362.2088 18.4383 1.6673-.8258-.0267-17.6125z"/>
  <path fill="#3a3a3a" fill-rule="evenodd" stroke="#000" stroke-linecap="round" stroke-linejoin="round" stroke-width="1.2427" d="m.6213 21.136 95.4254 58.2784 10.9342-8.8982s-1.9743-3.9798 1.3351-6.4863c3.6168-2.7392 7.9277.102 7.9277.102l9.4315-7.1567L30.0132.6213Z"/>
  <path fill="#121212" fill-rule="evenodd" stroke="#000" stroke-linecap="round" stroke-linejoin="round" stroke-width="1.2427" d="m.6213 21.136.416 20.6645 95.2486 58.9308-.2395-21.317L.6214 21.136"/>
  <path fill="#767676" fill-rule="evenodd" stroke="#000" stroke-linecap="round" stroke-linejoin="round" stroke-width="1.2427" d="m96.0467 79.4144.2395 21.3169 29.4172-23.1458-.0267-20.6104z"/>
  <path fill="#a1a1a1" fill-rule="evenodd" stroke="#000" stroke-linecap="round" stroke-linejoin="round" stroke-width="1.2407" d="m9.643 39.8382-2.7645 3.6161.511 14.8504 1.8163 1.9125.3 20.496 2.0746 1.6955-.2418-21.3893 1.987-.6203.4615-11.8718 3.0223-3.8173z"/>
  <path fill="#cfcfcf" fill-rule="evenodd" stroke="#000" stroke-linecap="round" stroke-linejoin="round" stroke-width="1.2427" d="m11.5805 82.4087 1.6658-.8248-.0267-18.9478 1.8286-.7733.3036-11.9295 1.4588-5.2233-3.0223 3.8173-.4615 11.8718-1.987.6203.2418 21.3893"/>
  <path fill="#a1a1a1" fill-rule="evenodd" stroke="#000" stroke-linecap="round" stroke-linejoin="round" stroke-width="1.2407" d="m22.7558 48.1772-2.7644 3.6162.5111 14.8504 1.8163 1.9125.3 20.4959 2.0745 1.6956-.2418-21.3894 1.987-.6203.4615-11.8717 3.0223-3.8173z"/>
  <path fill="#cfcfcf" fill-rule="evenodd" stroke="#000" stroke-linecap="round" stroke-linejoin="round" stroke-width="1.2427" d="m24.6934 90.7478 1.6658-.8248-.0266-18.9478 1.8286-.7734.3035-11.9294 1.4589-5.2233-3.0224 3.8173-.4615 11.8717-1.987.6203.2418 21.3894"/>
  <path fill="#a1a1a1" fill-rule="evenodd" stroke="#000" stroke-linecap="round" stroke-linejoin="round" stroke-width="1.2407" d="m36.9667 57.2059-2.7645 3.616.5111 14.8505 1.8163 1.9125.3 20.496 2.0745 1.6955-.2417-21.3893 1.9869-.6203.4615-11.8718 3.0223-3.8173z"/>
  <path fill="#cfcfcf" fill-rule="evenodd" stroke="#000" stroke-linecap="round" stroke-linejoin="round" stroke-width="1.2427" d="m38.9042 99.7764 1.6658-.8248-.0266-18.9478 1.8286-.7733.3035-11.9295 1.459-5.2233-3.0224 3.8173-.4616 11.8718-1.9869.6203.2418 21.3893"/>
  <path fill="#a1a1a1" fill-rule="evenodd" stroke="#000" stroke-linecap="round" stroke-linejoin="round" stroke-width="1.2407" d="m50.3958 65.7827-2.7645 3.6162.5112 14.8504 1.8162 1.9125.3 20.4959 2.0745 1.6955-.2417-21.3893 1.987-.6203.4614-11.8717 3.0223-3.8173z"/>
  <path fill="#cfcfcf" fill-rule="evenodd" stroke="#000" stroke-linecap="round" stroke-linejoin="round" stroke-width="1.2427" d="m52.3333 108.3533 1.6659-.8248-.0267-18.9478 1.8286-.7734.3036-11.9294 1.4588-5.2233-3.0223 3.8173-.4615 11.8717-1.987.6203.2418 21.3894"/>
  <path fill="#a1a1a1" fill-rule="evenodd" stroke="#000" stroke-linecap="round" stroke-linejoin="round" stroke-width="1.2407" d="m64.51 74.3674-2.7644 3.6161.5111 14.8504 1.8163 1.9125.3 20.496 2.0745 1.6955-.2417-21.3893 1.987-.6203.4614-11.8718 3.0223-3.8173z"/>
  <path fill="#cfcfcf" fill-rule="evenodd" stroke="#000" stroke-linecap="round" stroke-linejoin="round" stroke-width="1.2427" d="m66.4476 116.938 1.6658-.8249-.0266-18.9478 1.8286-.7733.3036-11.9295 1.4588-5.2233-3.0224 3.8173-.4615 11.8718-1.9869.6203.2418 21.3893"/>
  <path fill="#a1a1a1" fill-rule="evenodd" stroke="#000" stroke-linecap="round" stroke-linejoin="round" stroke-width="1.2407" d="m78.7577 84.8081-2.7644 3.6162.5111 14.8504 1.8163 1.9124.3 20.496 2.0745 1.6956-.2418-21.3894 1.987-.6203.4615-11.8718 3.0224-3.8172z"/>
  <path fill="#cfcfcf" fill-rule="evenodd" stroke="#000" stroke-linecap="round" stroke-linejoin="round" stroke-width="1.2427" d="m80.6953 127.3787 1.6658-.8248-.0267-18.9479 1.8287-.7733.3035-11.9294 1.4589-5.2233-3.0224 3.8172-.4615 11.8718-1.987.6203.2418 21.3894"/>
  <path fill="#ffdb58" fill-rule="evenodd" d="m101.2404 86.4919.0676 9.5526 1.7863-1.5211-.0458-9.4307zm2.8719-2.2706.0676 9.5526 1.7863-1.521-.0458-9.4308zm3.017-2.3169.0676 9.5527 1.7864-1.5212-.0458-9.4307zm2.8935-2.2816.0676 9.5527 1.7864-1.5212-.0459-9.4307zm2.8438-2.2361.0676 9.5526 1.7863-1.5211-.0458-9.4308zm2.7623-2.1692.0676 9.5527 1.7863-1.5212-.0458-9.4307zm2.7058-2.2157.0677 9.5527 1.7863-1.5212-.0458-9.4307zm2.7334-2.0576.0675 9.5526 1.7864-1.5211-.0458-9.4307z"/>
  <path fill="#757575" fill-rule="evenodd" stroke="#000" stroke-linecap="round" stroke-linejoin="round" stroke-width="1.1583" d="m103.4083 74.1992 12.8354-10.0674-.0178-8.407-13.1764 9.4519z"/>
  <path fill="#b9b9b9" fill-rule="evenodd" stroke="#000" stroke-linecap="round" stroke-linejoin="round" stroke-width="1.1583" d="m61.1544 17.794 25.2013 26.2576-3.1658 2.104 12.0668 14.3641 7.7912 4.657 13.178-9.4519-9.6383-4.5426-10.5858-13.9084-3.787 2.8307-24.6022-25.7892z"/>
  <path fill="#4e4e4e" fill-rule="evenodd" stroke="#000" stroke-linecap="round" stroke-linejoin="round" stroke-width="1.1583" d="m61.1544 17.794-.0457 6.427 19.5218 20.5078.2742 5.9801L95.709 67.7616l.3355 2.1163 7.3637 4.3212-.3608-9.0224-7.7913-4.657-12.0667-14.364 3.166-2.104z"/>
  <ellipse cx="95.7394" cy="74.9367" fill="#fff" stroke="#000" stroke-linecap="round" stroke-linejoin="round" stroke-width="2.4806" paint-order="stroke markers fill" rx="8.0838" ry="8.5589"/>
  <ellipse cx="118.6759" cy="59.344" fill="#fff" stroke="#000" stroke-linecap="round" stroke-linejoin="round" stroke-width="2.4806" paint-order="stroke markers fill" rx="8.0838" ry="8.5589"/>
  <ellipse cx="97.7547" cy="76.859" paint-order="stroke markers fill" rx="4.9378" ry="6.4721"/>
  <ellipse cx="119.4953" cy="61.341" paint-order="stroke markers fill" rx="4.9378" ry="6.4721"/>
</svg>
